<?xml version="1.0" encoding="utf-8"?>
<!-- Generator: Adobe Illustrator 27.5.0, SVG Export Plug-In . SVG Version: 6.00 Build 0)  -->
<svg version="1.1" id="Layer_1" xmlns="http://www.w3.org/2000/svg" xmlns:xlink="http://www.w3.org/1999/xlink" x="0px" y="0px"
	 viewBox="0 0 1452.6 291.1" style="enable-background:new 0 0 1452.6 291.1;" xml:space="preserve">
<style type="text/css">
	.st0{fill:#FFFFFF;}
</style>
<g id="Layer_2_00000088855275666905217210000013916757375050485419_">
	<g id="Layer_4">
		<path class="st0" d="M360.6,286.3V0h42.1v170.6l75.6-81.5h50.5L456,166.7c-6.3,6.7-6.4,17-0.3,23.9l85.5,95.7h-53.3l-85.1-101v101
			H360.6z"/>
		<path class="st0" d="M635,291.1c-18.8,0-35.7-4.3-50.7-12.9c-14.9-8.6-27.2-21.1-35.6-36.1c-8.7-15.5-13.1-33.6-13.1-54.3
			s4.4-38.8,13.3-54.3c8.5-15.1,20.9-27.6,36-36.2c15.1-8.6,31.9-13,50.5-13c18.8,0,35.7,4.3,50.7,12.9c15,8.6,27.3,21.1,35.8,36.2
			c8.9,15.5,13.3,33.6,13.3,54.3s-4.4,38.8-13.3,54.3c-8.5,15.1-20.9,27.6-36,36.2C670.8,286.8,653.8,291.1,635,291.1z M635,254.9
			c9.8,0.1,19.5-2.6,28-7.6c8.6-5,15.6-12.5,20.9-22.5s8-22.3,8-37.2c0-14.8-2.6-27.2-7.8-37.2c-5.2-9.9-12-17.4-20.6-22.5
			c-17.3-10.1-38.7-10.1-56.1,0c-8.6,5-15.6,12.5-20.9,22.5c-5.3,9.9-8,22.3-8,37.2c0,14.8,2.7,27.2,8,37.2
			c5.3,9.9,12.2,17.4,20.7,22.5C615.6,252.3,625.2,254.9,635,254.9L635,254.9z"/>
		<path class="st0" d="M765,286.3V0h42.2v286.3H765z"/>
		<path class="st0" d="M936.8,291.1c-19.3,0-36.5-4.3-51.5-12.9c-14.9-8.5-27-21-35.2-36c-8.5-15.4-12.7-33.3-12.7-53.7
			c0-20.7,4.2-38.8,12.5-54.5c8-15.3,20.1-27.9,35-36.6c15-8.7,32.4-13.1,52.3-13.1c19.3,0,36.2,4.3,50.5,12.9
			c14,8.3,25.5,20.2,33.4,34.4c8,14.5,12.1,30.8,11.9,47.3c0,2.6-0.1,5.5-0.2,8.6s-0.3,6.4-0.6,10.1H878.8
			c1.3,19.1,7.6,33.6,18.9,43.5c10.7,9.7,24.7,15.1,39.2,14.9c11.9,0,21.9-2.7,30-8.1c8.1-5.4,14.4-13.1,18.2-22.1h42.2
			c-5.3,18.6-15.8,34.1-31.6,46.5S960.2,291.1,936.8,291.1z M936.8,118.9c-13.5-0.2-26.7,4.2-37.4,12.5
			c-10.9,8.4-17.5,20.9-19.9,37.6h111.3c-0.8-15.4-6.2-27.6-16.3-36.6C964.5,123.4,951.9,118.9,936.8,118.9z"/>
		<path class="st0" d="M1060.9,286.3V89.1h37.4l3.2,34.6c5.9-12,15.3-22,26.8-28.8c11.8-7,25.4-10.5,40.8-10.5
			c23.9,0,42.6,7.4,56.3,22.3s20.5,37,20.5,66.4v113.3h-41.8v-109c0-38.2-15.6-57.3-46.9-57.3c-15.6,0-28.6,5.6-38.8,16.7
			c-10.2,11.1-15.3,27-15.3,47.7v101.8H1060.9z"/>
		<path class="st0" d="M1346.4,291.1c-16.7,0-30.4-2.8-41.3-8.4s-19-12.9-24.2-22.1c-5.3-9.1-8.1-19.5-8-30
			c0-19.1,7.4-34.2,22.3-45.3c14.8-11.1,36.1-16.7,63.6-16.7h51.7V165c0-15.4-4.2-26.9-12.5-34.6s-19.1-11.5-32.4-11.5
			c-11.7,0-21.8,2.8-30.4,8.5c-8.6,5.7-13.9,14.1-15.7,25.3h-42.1c1.3-14.3,6.2-26.6,14.5-36.8c8.5-10.3,19.4-18.4,31.8-23.5
			c13.4-5.5,27.8-8.3,42.3-8.2c27.6,0,48.9,7.2,64,21.7c15.1,14.4,22.7,34.1,22.7,59v121.3H1416l-3.6-33.8
			c-5.7,11-14,20.4-24.2,27.4C1377.6,287.4,1363.6,291.1,1346.4,291.1z M1354.8,256.9c11.4,0,21-2.7,28.8-8.1
			c7.9-5.5,14.2-13,18.3-21.7c4.5-9.4,7.2-19.5,8.2-29.8h-46.9c-16.7,0-28.6,2.9-35.6,8.8s-10.5,13.1-10.5,21.9
			c0,9,3.4,16.1,10.1,21.3S1343.1,256.9,1354.8,256.9L1354.8,256.9z"/>
		<path class="st0" d="M204.2,259.8l114.2-114.2l-39.9-39.9L159.2,225l-49.7-49.6l-39.8,39.8l44.7,44.6
			C139.1,284.6,179.4,284.6,204.2,259.8z"/>
		<path class="st0" d="M114.2,31.2L0,145.5l39.9,40L159.3,66.1l49.7,49.7l39.8-39.8l-44.6-44.7C179.3,6.4,139.1,6.4,114.2,31.2
			C114.2,31.2,114.2,31.2,114.2,31.2z"/>
	</g>
</g>
</svg>
