<?xml version="1.0" encoding="utf-8"?>
<!-- Generator: Adobe Illustrator 18.1.0, SVG Export Plug-In . SVG Version: 6.00 Build 0)  -->
<svg version="1.1" id="Layer_1" xmlns="http://www.w3.org/2000/svg" xmlns:xlink="http://www.w3.org/1999/xlink" x="0px" y="0px"
     viewBox="0 0 20 20" enable-background="new 0 0 20 20" xml:space="preserve">
<g id="layout_auto_3_">
	<g>
        <path d="M2,4 C2,2.8954305 2.8954305,2 4,2 L8.58768786,2 C9.11812084,2 9.62682866,2.21071368 10.0019014,2.58578644 L17.4115245,9.99540956 C18.1925731,10.7764581 18.1925731,12.0427881 17.4115245,12.8238367 L12.8238367,17.4115245 C12.0427881,18.1925731 10.7764581,18.1925731 9.99540956,17.4115245 L2.58578644,10.0019014 C2.21071368,9.62682866 2,9.11812084 2,8.58768786 L2,4 Z M5.48863925,3.99350814 C4.66290114,3.99350814 3.99350814,4.66290114 3.99350814,5.48863925 C3.99350814,6.31437736 4.66290114,6.98377035 5.48863925,6.98377035 C6.31437736,6.98377035 6.98377035,6.31437736 6.98377035,5.48863925 C6.98377035,4.66290114 6.31437736,3.99350814 5.48863925,3.99350814 Z" />
	</g>
</g>
</svg>
