<?xml version="1.0" encoding="utf-8"?>
<!-- Generator: Adobe Illustrator 18.1.0, SVG Export Plug-In . SVG Version: 6.00 Build 0)  -->
<svg version="1.1" id="Layer_1" xmlns="http://www.w3.org/2000/svg" xmlns:xlink="http://www.w3.org/1999/xlink" x="0px" y="0px"
     viewBox="0 0 16 16" enable-background="new 0 0 16 16" xml:space="preserve">
<g id="layout_auto_4_">
	<g>
        <path d="M9.21672585,0 C9.21672585,1.36752137 9.58467001,2.46153846 10.3205583,3.28205128 C12.7735194,5.1965812 14,7.38461538 14,9.84615385 C14,12.5811966 12.5282233,14.6324786 9.58467001,16 C11.75,13.6 11.4243908,12.6153846 9.21672585,9.6 C6.875,10.8 7.25,11.6 7.625,13.2 C6.83931924,13.2 6.125,13.2 5.75,12.8 C5.75,13.3470085 6.64753691,14.8 7.21431924,16 C4.27076592,15.1794872 1.1219542,10.2564103 2.2257867,9.84615385 C2.96167503,9.57264957 3.82021142,9.70940171 4.80139586,10.2564103 C3.57491531,5.33333333 5.04669197,1.91452991 9.21672585,0 Z" />
	</g>
</g>
</svg>
