<?xml version="1.0" encoding="utf-8"?>
<!-- Generator: Adobe Illustrator 18.1.0, SVG Export Plug-In . SVG Version: 6.00 Build 0)  -->
<svg version="1.1" id="Layer_1" xmlns="http://www.w3.org/2000/svg" xmlns:xlink="http://www.w3.org/1999/xlink" x="0px" y="0px"
     viewBox="0 0 16 16" enable-background="new 0 0 16 16" xml:space="preserve">
<g id="layout_auto_4_">
	<g>
        <path d="M8.44103536,0.104259523 C8.1731087,-0.0347531745 7.82678221,-0.0347531745 7.559001,0.104259523 L0.365126443,4 C-0.121708814,4.2528344 -0.121708814,4.74728116 0.365126443,5 L7.559001,8.89605713 C7.82678221,9.03506983 8.1731087,9.03506983 8.44103536,8.89605713 L15.6347645,5 C16.1217452,4.74728116 16.1217452,4.2528344 15.6347645,4 L8.44103536,0.104259523 Z" />
        <path d="M14,4.50015833 L14.016461,9.01419537 C14.0184568,9.56151702 14.4627102,10.0041533 15.0100355,10.0041533 C15.5567778,10.0041533 16,9.5609311 16,9.01418879 L16,4.50015833 L16,4.50015833 L14,4.50015833 Z" />
        <path d="M3.37120329,8.04682776 L7.75801685,10.4785014 C7.90876752,10.5620646 8.09192881,10.5620911 8.24270362,10.4785714 L12.6329513,8.04665254 C12.7537301,7.97974871 12.905877,8.02342305 12.9727808,8.1442019 C12.9933171,8.18127521 13.0040913,8.22296077 13.0040913,8.26534199 L13.0040913,11.2204273 C13.0040913,11.3133052 12.9526022,11.3985277 12.870385,11.4417321 L8.23463293,13.8777775 C8.08901543,13.9542982 7.91507592,13.9542982 7.76945842,13.8777775 L3.13370637,11.4417321 C3.05148913,11.3985277 3,11.3133052 3,11.2204273 L3,8.26548219 C3,8.12741101 3.11192881,8.01548219 3.25,8.01548219 C3.2924057,8.01548219 3.33411451,8.02626892 3.37120329,8.04682776 Z" />
	</g>
</g>
</svg>
