<?xml version="1.0" encoding="utf-8"?>
<!-- Generator: Adobe Illustrator 18.1.0, SVG Export Plug-In . SVG Version: 6.00 Build 0)  -->
<svg version="1.1" id="Layer_1" xmlns="http://www.w3.org/2000/svg" xmlns:xlink="http://www.w3.org/1999/xlink" x="0px" y="0px"
     viewBox="0 0 20 20" enable-background="new 0 0 20 20" xml:space="preserve">
<g id="layout_auto_3_">
	<g>
        <path d="M7.87932014,11.1190895 C8.32757971,10.8726686 8.89951796,11.0209779 9.15677998,11.4503478 L9.15677998,11.4503478 L12.8758298,17.6574349 C12.9571894,17.793224 13,17.9470565 13,18.1036195 C13,18.5986768 12.5810209,19 12.064184,19 L12.064184,19 L4.93600527,19 C4.78419123,19 4.6346564,18.9646219 4.50030072,18.8969177 C4.04289918,18.6664251 3.86717355,18.1244021 4.10780653,17.6862756 L4.10780653,17.6862756 L7.51693549,11.4791885 C7.59961451,11.3286527 7.72530275,11.2037572 7.87932014,11.1190895 Z M15,5 C17.209139,5 19,6.790861 19,9 C19,11.209139 17.209139,13 15,13 C12.790861,13 11,11.209139 11,9 C11,6.790861 12.790861,5 15,5 Z M8,1 C8.55228475,1 9,1.44771525 9,2 L9,8 C9,8.55228475 8.55228475,9 8,9 L2,9 C1.44771525,9 1,8.55228475 1,8 L1,2 C1,1.44771525 1.44771525,1 2,1 L8,1 Z" />
	</g>
</g>
</svg>
