<svg xmlns="http://www.w3.org/2000/svg" viewBox="0 0 1452.58 291.08"><defs><style>.cls-1{fill:#6434c1;}</style></defs><g id="Layer_2" data-name="Layer 2"><g id="Layer_4" data-name="Layer 4"><path class="cls-1" d="M360.65,286.3V0H402.8V170.59l75.56-81.52h50.5L456,166.74a17.67,17.67,0,0,0-.3,23.87l85.45,95.69H487.9l-85.1-101v101Z"/><path class="cls-1" d="M635,291.08q-28.23,0-50.7-12.93A94.32,94.32,0,0,1,548.74,242q-13.12-23.26-13.12-54.28t13.32-54.28a95.25,95.25,0,0,1,36-36.18Q607.6,84.3,635.43,84.3q28.23,0,50.7,12.93a95.71,95.71,0,0,1,35.78,36.18q13.32,23.26,13.32,54.28T721.91,242a95.29,95.29,0,0,1-36,36.18Q663.27,291.07,635,291.08Zm0-36.19a54.62,54.62,0,0,0,28-7.55q12.93-7.56,20.88-22.47t7.95-37.18q0-22.26-7.75-37.18T663.47,128a55.84,55.84,0,0,0-56.08,0q-12.92,7.56-20.87,22.47t-7.95,37.18q0,22.27,7.95,37.18t20.68,22.47A53.55,53.55,0,0,0,635,254.89Z"/><path class="cls-1" d="M765.05,286.3V0H807.2V286.3Z"/><path class="cls-1" d="M936.84,291.08q-29,0-51.5-12.93a91.79,91.79,0,0,1-35.19-36q-12.74-23.06-12.72-53.67,0-31,12.52-54.48a91.18,91.18,0,0,1,35-36.59q22.45-13.11,52.28-13.12,29,0,50.51,12.93a91.44,91.44,0,0,1,33.4,34.39,95.84,95.84,0,0,1,11.93,47.32c0,2.65-.08,5.51-.21,8.55s-.33,6.43-.59,10.14H878.78q2,28.63,18.89,43.54a57.39,57.39,0,0,0,39.17,14.91q17.89,0,30-8.15A49.37,49.37,0,0,0,985,225.86h42.15q-7.95,27.84-31.61,46.53T936.84,291.08Zm0-172.18a59.65,59.65,0,0,0-37.38,12.52Q883.14,143.95,879.57,169H990.91q-1.18-23.06-16.3-36.59T936.84,118.9Z"/><path class="cls-1" d="M1060.9,286.3V89.07h37.38l3.18,34.6a68.65,68.65,0,0,1,26.84-28.83Q1146,84.31,1169.06,84.3q35.79,0,56.26,22.27T1245.8,173V286.3h-41.75v-109q0-57.25-46.92-57.26-23.46,0-38.77,16.7t-15.31,47.72V286.3Z"/><path class="cls-1" d="M1346.4,291.08q-25,0-41.35-8.35t-24.25-22.07a58.74,58.74,0,0,1-8-30q0-28.62,22.27-45.33t63.62-16.7h51.69V165q0-23.06-12.52-34.59t-32.4-11.53q-17.51,0-30.43,8.54t-15.71,25.26h-42.14q2-21.48,14.51-36.79a81.22,81.22,0,0,1,31.81-23.46,107.76,107.76,0,0,1,42.35-8.15q41.35,0,64,21.67T1452.58,165V286.3H1416l-3.58-33.8a74.79,74.79,0,0,1-24.25,27.44Q1372.25,291.07,1346.4,291.08Zm8.36-34.2q17.09,0,28.83-8.15a55.28,55.28,0,0,0,18.29-21.67,87.13,87.13,0,0,0,8.15-29.83h-46.92q-25.06,0-35.59,8.75T1317,227.85q0,13.53,10.14,21.28T1354.76,256.88Z"/><path class="cls-1" d="M204.22,259.83,318.46,145.59l-39.93-39.94L159.16,225,109.5,175.36,69.67,215.18l44.65,44.65A63.58,63.58,0,0,0,204.22,259.83Z"/><path class="cls-1" d="M114.23,31.25,0,145.48l39.93,40L159.3,66.06,209,115.72,248.78,75.9,204.14,31.25A63.57,63.57,0,0,0,114.23,31.25Z"/></g></g></svg>
